<?xml version="1.0" encoding="UTF-8"?>
<svg xmlns="http://www.w3.org/2000/svg" xmlns:xlink="http://www.w3.org/1999/xlink" width="119px" height="50px" viewBox="0 0 120 50" version="1.1">
<g id="surface1">
<path style=" stroke:none;fill-rule:nonzero;fill:rgb(20%,62.745098%,17.254902%);fill-opacity:1;" d="M 83.847656 17.074219 C 77.855469 17.074219 71.808594 19.71875 71.808594 25.621094 C 71.808594 28.390625 73.128906 30.65625 75.605469 32.175781 C 77.695312 33.449219 80.558594 34.15625 83.664062 34.15625 C 85.640625 34.15625 87.5625 33.90625 89.609375 33.222656 L 88.484375 30.433594 C 87.152344 30.75 85.992188 30.851562 84.992188 30.851562 C 80.128906 30.851562 77.332031 28.949219 77.332031 25.621094 C 77.332031 22.296875 80.265625 20.3125 84.980469 20.3125 C 85.914062 20.3125 86.800781 20.402344 87.9375 20.652344 L 89.628906 18 C 87.574219 17.15625 85.6875 17.074219 83.84375 17.074219 M 59.09375 17.074219 C 53.84375 17.074219 48.195312 19.742188 48.195312 25.597656 C 48.195312 31.457031 53.84375 34.167969 59.09375 34.167969 C 64.34375 34.167969 69.996094 31.488281 69.996094 25.597656 C 69.996094 19.707031 64.34375 17.074219 59.09375 17.074219 M 59.09375 31.160156 C 55.921875 31.160156 53.71875 28.867188 53.71875 25.597656 C 53.71875 22.324219 55.878906 20.023438 59.09375 20.023438 C 62.3125 20.023438 64.46875 22.269531 64.46875 25.597656 C 64.46875 28.925781 62.253906 31.160156 59.09375 31.160156 M 99.441406 17.074219 C 97.03125 17.074219 94.734375 17.398438 92.203125 18.101562 L 92.203125 33.894531 L 97.628906 33.894531 L 97.628906 20.265625 C 98.230469 20.175781 98.796875 20.128906 99.320312 20.128906 C 100.546875 20.128906 104.539062 20.402344 104.539062 23.96875 C 104.539062 26.542969 102.199219 27.703125 99.867188 27.703125 C 99.761719 27.703125 99.511719 27.691406 99.320312 27.683594 L 98.242188 29.972656 C 99.285156 30.085938 99.84375 30.121094 100.402344 30.121094 C 105.207031 30.121094 110.0625 28.125 110.0625 23.671875 C 110.0625 19.660156 105.707031 17.074219 99.445312 17.074219 "/>
<path style=" stroke:none;fill-rule:nonzero;fill:rgb(20%,62.745098%,17.254902%);fill-opacity:1;" d="M 39.8125 31.175781 C 41.351562 29.855469 44.398438 27.324219 43.3125 21.414062 C 43.300781 21.347656 43.203125 21.351562 43.199219 21.417969 C 43.042969 23.753906 41.804688 25.230469 41.21875 27.070312 C 41.203125 27.125 41.125 27.113281 41.125 27.054688 C 41.144531 25.269531 39.664062 23.890625 39.4375 22.824219 C 39.421875 22.761719 39.332031 22.761719 39.320312 22.824219 C 38.753906 26.375 40.417969 28.769531 39.722656 31.117188 C 39.707031 31.171875 39.769531 31.214844 39.8125 31.175781 "/>
<path style=" stroke:none;fill-rule:nonzero;fill:rgb(20%,62.745098%,17.254902%);fill-opacity:1;" d="M 42.394531 30.003906 C 40.550781 32.21875 40.277344 32.046875 38.285156 33.996094 C 38.246094 34.039062 38.179688 33.988281 38.210938 33.9375 C 39.535156 31.757812 38.761719 30 38.421875 29.261719 C 38.394531 29.207031 38.316406 29.222656 38.3125 29.28125 C 38.203125 31.5 36.566406 36.417969 28.847656 39.425781 C 28.558594 39.535156 28.421875 39.722656 28.445312 39.855469 C 28.445312 39.855469 28.445312 40.035156 28.859375 40.015625 C 30.875 39.921875 39.246094 38.128906 42.476562 30.054688 C 42.5 30 42.429688 29.960938 42.394531 30.003906 "/>
<path style=" stroke:none;fill-rule:nonzero;fill:rgb(20%,62.745098%,17.254902%);fill-opacity:1;" d="M 27.132812 14.671875 C 26.351562 16.09375 25.402344 18.808594 25.234375 19.667969 L 24.453125 19.667969 C 24.417969 19.667969 24.390625 19.699219 24.394531 19.730469 C 24.472656 20.6875 26.324219 22.0625 27.050781 22.566406 C 27.089844 22.59375 27.140625 22.566406 27.140625 22.515625 L 27.242188 14.703125 C 27.242188 14.640625 27.164062 14.617188 27.132812 14.671875 "/>
<path style=" stroke:none;fill-rule:nonzero;fill:rgb(20%,62.745098%,17.254902%);fill-opacity:1;" d="M 27.566406 14.671875 C 28.351562 16.09375 29.296875 18.808594 29.464844 19.667969 L 30.246094 19.667969 C 30.28125 19.667969 30.308594 19.699219 30.308594 19.730469 C 30.230469 20.6875 28.375 22.0625 27.648438 22.566406 C 27.613281 22.59375 27.5625 22.566406 27.5625 22.515625 L 27.460938 14.703125 C 27.460938 14.640625 27.539062 14.617188 27.570312 14.671875 "/>
<path style=" stroke:none;fill-rule:nonzero;fill:rgb(20%,62.745098%,17.254902%);fill-opacity:1;" d="M 17.5625 21.960938 C 18.671875 23.148438 20.953125 24.890625 21.71875 25.3125 L 21.476562 26.058594 C 21.46875 26.09375 21.484375 26.128906 21.519531 26.136719 C 22.449219 26.355469 24.328125 25.015625 25.03125 24.476562 C 25.066406 24.449219 25.054688 24.394531 25.011719 24.378906 L 17.628906 21.867188 C 17.574219 21.851562 17.523438 21.917969 17.566406 21.960938 "/>
<path style=" stroke:none;fill-rule:nonzero;fill:rgb(20%,62.745098%,17.254902%);fill-opacity:1;" d="M 17.699219 21.546875 C 19.289062 21.242188 22.160156 21.175781 23.027344 21.285156 L 23.269531 20.539062 C 23.277344 20.503906 23.3125 20.488281 23.347656 20.5 C 24.230469 20.867188 24.960938 23.0625 25.214844 23.910156 C 25.226562 23.953125 25.183594 23.992188 25.140625 23.980469 L 17.695312 21.660156 C 17.636719 21.644531 17.640625 21.558594 17.699219 21.546875 "/>
<path style=" stroke:none;fill-rule:nonzero;fill:rgb(20%,62.745098%,17.254902%);fill-opacity:1;" d="M 21.523438 33.335938 C 22.992188 32.648438 25.351562 31.011719 25.988281 30.414062 L 26.621094 30.875 C 26.648438 30.894531 26.6875 30.886719 26.707031 30.859375 C 27.203125 30.039062 26.507812 27.835938 26.21875 27 C 26.203125 26.953125 26.144531 26.949219 26.117188 26.988281 L 21.457031 33.25 C 21.417969 33.296875 21.46875 33.363281 21.523438 33.335938 "/>
<path style=" stroke:none;fill-rule:nonzero;fill:rgb(20%,62.745098%,17.254902%);fill-opacity:1;" d="M 21.171875 33.082031 C 21.375 31.472656 22.199219 28.714844 22.570312 27.921875 L 21.933594 27.460938 C 21.90625 27.441406 21.902344 27.402344 21.921875 27.375 C 22.546875 26.648438 24.851562 26.628906 25.734375 26.648438 C 25.78125 26.648438 25.804688 26.703125 25.777344 26.742188 L 21.277344 33.121094 C 21.246094 33.171875 21.164062 33.144531 21.171875 33.085938 "/>
<path style=" stroke:none;fill-rule:nonzero;fill:rgb(20%,62.745098%,17.254902%);fill-opacity:1;" d="M 33.539062 33.082031 C 33.335938 31.46875 32.511719 28.714844 32.144531 27.917969 L 32.777344 27.457031 C 32.804688 27.4375 32.808594 27.398438 32.789062 27.371094 C 32.164062 26.644531 29.859375 26.625 28.972656 26.644531 C 28.925781 26.644531 28.902344 26.699219 28.929688 26.738281 L 33.429688 33.121094 C 33.464844 33.167969 33.546875 33.140625 33.535156 33.082031 "/>
<path style=" stroke:none;fill-rule:nonzero;fill:rgb(20%,62.745098%,17.254902%);fill-opacity:1;" d="M 33.1875 33.335938 C 31.722656 32.648438 29.363281 31.007812 28.722656 30.410156 L 28.089844 30.871094 C 28.0625 30.890625 28.023438 30.886719 28.003906 30.855469 C 27.507812 30.035156 28.203125 27.832031 28.492188 26.996094 C 28.507812 26.953125 28.566406 26.945312 28.59375 26.984375 L 33.257812 33.246094 C 33.292969 33.296875 33.242188 33.363281 33.1875 33.335938 "/>
<path style=" stroke:none;fill-rule:nonzero;fill:rgb(20%,62.745098%,17.254902%);fill-opacity:1;" d="M 37.007812 21.546875 C 35.417969 21.238281 32.546875 21.175781 31.679688 21.28125 L 31.4375 20.535156 C 31.429688 20.503906 31.390625 20.484375 31.359375 20.496094 C 30.476562 20.867188 29.746094 23.058594 29.492188 23.90625 C 29.480469 23.953125 29.523438 23.992188 29.566406 23.976562 L 37.011719 21.660156 C 37.070312 21.640625 37.066406 21.558594 37.007812 21.546875 "/>
<path style=" stroke:none;fill-rule:nonzero;fill:rgb(20%,62.745098%,17.254902%);fill-opacity:1;" d="M 37.140625 21.960938 C 36.035156 23.148438 33.75 24.890625 32.988281 25.3125 L 33.230469 26.058594 C 33.238281 26.09375 33.222656 26.128906 33.1875 26.136719 C 32.257812 26.355469 30.378906 25.015625 29.675781 24.476562 C 29.640625 24.449219 29.652344 24.394531 29.695312 24.378906 L 37.078125 21.867188 C 37.132812 21.851562 37.179688 21.917969 37.140625 21.960938 "/>
<path style=" stroke:none;fill-rule:nonzero;fill:rgb(20%,62.745098%,17.254902%);fill-opacity:1;" d="M 37.441406 13.542969 C 36.960938 13.105469 36.257812 12.890625 35.539062 12.820312 C 35.476562 12.816406 35.414062 12.796875 35.359375 12.769531 C 34.097656 12.089844 32.75 11.511719 31.351562 11.195312 C 31.347656 11.195312 31.332031 11.191406 31.332031 11.191406 C 31.296875 11.183594 31.265625 11.203125 31.257812 11.238281 C 31.253906 11.269531 31.273438 11.300781 31.304688 11.3125 C 31.304688 11.3125 31.320312 11.3125 31.328125 11.316406 C 32.804688 11.679688 34.277344 12.355469 35.132812 13.066406 C 35.191406 13.113281 35.234375 13.175781 35.265625 13.246094 C 35.507812 13.824219 35.777344 14.359375 36.257812 14.800781 C 36.722656 15.226562 37.378906 15.296875 37.703125 14.953125 C 38.027344 14.609375 37.964844 14.023438 37.445312 13.542969 "/>
<path style=" stroke:none;fill-rule:nonzero;fill:rgb(20%,62.745098%,17.254902%);fill-opacity:1;" d="M 40.367188 18.78125 L 38.953125 16.976562 C 37.886719 15.621094 37.398438 16.011719 36.582031 16.054688 C 36.4375 16.0625 36.296875 16.019531 36.183594 15.929688 C 34.722656 14.75 33.082031 13.640625 30.910156 13.179688 C 30.902344 13.179688 30.886719 13.175781 30.886719 13.175781 C 30.859375 13.167969 30.828125 13.1875 30.824219 13.214844 C 30.816406 13.242188 30.835938 13.269531 30.859375 13.273438 C 30.859375 13.273438 30.984375 13.308594 31.046875 13.324219 C 32.804688 13.792969 34.308594 14.640625 35.644531 16 C 37.878906 18.695312 39.332031 18.347656 40.292969 18.863281 C 40.347656 18.894531 40.40625 18.828125 40.367188 18.777344 "/>
<path style=" stroke:none;fill-rule:nonzero;fill:rgb(20%,62.745098%,17.254902%);fill-opacity:1;" d="M 40.90625 18.539062 C 40.703125 17.410156 41 15.449219 39.582031 13.863281 C 39.53125 13.796875 39.449219 13.714844 39.367188 13.632812 C 37.414062 11.527344 34.808594 9.984375 31.75 9.332031 C 31.5 9.28125 31.25 9.234375 30.992188 9.191406 C 30.988281 9.191406 30.976562 9.1875 30.976562 9.1875 C 30.949219 9.1875 30.921875 9.203125 30.917969 9.230469 C 30.914062 9.257812 30.933594 9.285156 30.960938 9.289062 C 30.960938 9.289062 30.988281 9.292969 31 9.296875 C 31.242188 9.339844 31.484375 9.390625 31.722656 9.441406 C 34.542969 10.082031 36.929688 11.421875 38.804688 13.652344 C 38.910156 13.78125 38.941406 13.953125 38.886719 14.109375 C 38.667969 14.703125 38.5 15.171875 39.058594 15.992188 C 39.21875 16.234375 40.355469 17.917969 40.800781 18.578125 C 40.835938 18.628906 40.914062 18.597656 40.902344 18.539062 "/>
<path style=" stroke:none;fill-rule:nonzero;fill:rgb(20%,62.745098%,17.254902%);fill-opacity:1;" d="M 41.367188 21.421875 C 41.367188 21.476562 41.292969 21.492188 41.273438 21.441406 C 41.128906 21.074219 40.835938 20.472656 40.324219 19.984375 C 39.679688 19.363281 38.972656 19.316406 38.4375 18.816406 C 38.394531 18.773438 38.324219 18.8125 38.335938 18.871094 C 39.003906 22.039062 40.984375 22.171875 41.25 23.960938 C 41.257812 24.019531 41.339844 24.027344 41.359375 23.96875 C 41.898438 22.320312 44.226562 19.824219 41.304688 16.039062 C 41.265625 15.988281 41.183594 16.03125 41.203125 16.09375 C 41.863281 18.089844 41.324219 19.839844 41.367188 21.421875 "/>
<path style=" stroke:none;fill-rule:nonzero;fill:rgb(20%,62.745098%,17.254902%);fill-opacity:1;" d="M 14.894531 31.175781 C 13.355469 29.855469 10.308594 27.324219 11.390625 21.414062 C 11.402344 21.347656 11.5 21.351562 11.507812 21.417969 C 11.660156 23.753906 12.898438 25.230469 13.484375 27.070312 C 13.5 27.125 13.578125 27.113281 13.578125 27.054688 C 13.558594 25.269531 15.039062 23.890625 15.265625 22.824219 C 15.285156 22.761719 15.375 22.761719 15.382812 22.824219 C 15.953125 26.375 14.285156 28.769531 14.980469 31.117188 C 14.996094 31.171875 14.9375 31.214844 14.894531 31.175781 "/>
<path style=" stroke:none;fill-rule:nonzero;fill:rgb(20%,62.745098%,17.254902%);fill-opacity:1;" d="M 12.3125 30.003906 C 14.15625 32.21875 14.425781 32.046875 16.417969 33.996094 C 16.460938 34.039062 16.527344 33.988281 16.496094 33.9375 C 15.167969 31.757812 15.941406 30 16.285156 29.261719 C 16.308594 29.207031 16.386719 29.222656 16.390625 29.28125 C 16.503906 31.5 18.140625 36.417969 25.855469 39.425781 C 26.144531 39.535156 26.28125 39.722656 26.257812 39.855469 C 26.257812 39.855469 26.257812 40.035156 25.84375 40.015625 C 23.832031 39.921875 15.457031 38.128906 12.226562 30.054688 C 12.207031 30 12.277344 29.960938 12.3125 30.003906 "/>
<path style=" stroke:none;fill-rule:nonzero;fill:rgb(20%,62.745098%,17.254902%);fill-opacity:1;" d="M 17.261719 13.542969 C 17.742188 13.105469 18.449219 12.890625 19.164062 12.820312 C 19.230469 12.816406 19.289062 12.796875 19.34375 12.769531 C 20.605469 12.089844 21.957031 11.511719 23.351562 11.195312 C 23.355469 11.195312 23.371094 11.191406 23.371094 11.191406 C 23.402344 11.183594 23.4375 11.203125 23.445312 11.238281 C 23.449219 11.269531 23.429688 11.300781 23.398438 11.3125 C 23.398438 11.3125 23.382812 11.3125 23.375 11.316406 C 21.898438 11.679688 20.425781 12.355469 19.570312 13.066406 C 19.511719 13.113281 19.46875 13.175781 19.4375 13.246094 C 19.195312 13.824219 18.925781 14.359375 18.445312 14.800781 C 17.980469 15.226562 17.324219 15.296875 17 14.953125 C 16.675781 14.609375 16.738281 14.023438 17.257812 13.542969 "/>
<path style=" stroke:none;fill-rule:nonzero;fill:rgb(20%,62.745098%,17.254902%);fill-opacity:1;" d="M 14.339844 18.78125 L 15.753906 16.976562 C 16.820312 15.621094 17.308594 16.011719 18.121094 16.054688 C 18.265625 16.0625 18.40625 16.019531 18.519531 15.929688 C 19.980469 14.75 21.621094 13.640625 23.792969 13.179688 C 23.800781 13.179688 23.820312 13.175781 23.820312 13.175781 C 23.847656 13.167969 23.875 13.1875 23.878906 13.214844 C 23.886719 13.242188 23.871094 13.269531 23.84375 13.273438 C 23.84375 13.273438 23.71875 13.308594 23.65625 13.324219 C 21.898438 13.792969 20.394531 14.640625 19.058594 16 C 16.824219 18.695312 15.375 18.347656 14.410156 18.863281 C 14.359375 18.894531 14.300781 18.828125 14.339844 18.777344 "/>
<path style=" stroke:none;fill-rule:nonzero;fill:rgb(20%,62.745098%,17.254902%);fill-opacity:1;" d="M 13.796875 18.539062 C 14 17.410156 13.703125 15.449219 15.121094 13.863281 C 15.175781 13.796875 15.253906 13.714844 15.335938 13.632812 C 17.292969 11.527344 19.894531 9.984375 22.957031 9.332031 C 23.207031 9.28125 23.457031 9.234375 23.710938 9.191406 C 23.71875 9.191406 23.730469 9.1875 23.730469 9.1875 C 23.757812 9.1875 23.78125 9.203125 23.785156 9.230469 C 23.789062 9.257812 23.769531 9.285156 23.742188 9.289062 C 23.742188 9.289062 23.71875 9.292969 23.707031 9.296875 C 23.460938 9.339844 23.21875 9.390625 22.980469 9.441406 C 20.160156 10.082031 17.773438 11.421875 15.902344 13.652344 C 15.796875 13.78125 15.765625 13.953125 15.820312 14.109375 C 16.039062 14.703125 16.207031 15.171875 15.648438 15.992188 C 15.484375 16.234375 14.351562 17.917969 13.90625 18.578125 C 13.871094 18.628906 13.789062 18.597656 13.800781 18.539062 "/>
<path style=" stroke:none;fill-rule:nonzero;fill:rgb(20%,62.745098%,17.254902%);fill-opacity:1;" d="M 13.5 16.09375 C 13.523438 16.03125 13.441406 15.988281 13.398438 16.039062 C 10.476562 19.824219 12.804688 22.324219 13.34375 23.972656 C 13.363281 24.027344 13.445312 24.019531 13.453125 23.960938 C 13.722656 22.171875 15.703125 22.039062 16.367188 18.871094 C 16.378906 18.8125 16.308594 18.773438 16.265625 18.816406 C 15.730469 19.316406 15.027344 19.359375 14.378906 19.984375 C 13.867188 20.472656 13.578125 21.074219 13.429688 21.441406 C 13.410156 21.492188 13.335938 21.476562 13.335938 21.421875 C 13.378906 19.839844 12.839844 18.089844 13.5 16.09375 "/>
</g>
</svg>
