<?xml version="1.0" encoding="utf-8"?>
<!-- Generator: Adobe Illustrator 24.0.1, SVG Export Plug-In . SVG Version: 6.00 Build 0)  -->
<svg version="1.1" id="Calque_1" xmlns="http://www.w3.org/2000/svg" xmlns:xlink="http://www.w3.org/1999/xlink" x="0px" y="0px"
	 viewBox="0 0 307.91 147.57" style="enable-background:new 0 0 307.91 147.57;" xml:space="preserve">
<style type="text/css">
	.st0{fill:url(#SVGID_1_);}
	.st1{fill:url(#SVGID_2_);}
	.st2{fill:url(#SVGID_3_);}
	.st3{fill:#EEC033;}
	.st4{fill:#025287;}
</style>
<linearGradient id="SVGID_1_" gradientUnits="userSpaceOnUse" x1="7.6286" y1="97.7086" x2="149.2891" y2="97.7086" gradientTransform="matrix(0.9995 0.031 -0.031 0.9995 4.2585 -8.6062)">
	<stop  offset="0" style="stop-color:#005691"/>
	<stop  offset="0.7709" style="stop-color:#0086CB"/>
</linearGradient>
<path class="st0" d="M143.72,106.57c-0.5,0.41-1,0.04-0.59-0.46c1.22-1.48,0.87-0.96,1.81-2.64c-1.23,1.43-1.11,1.17-2.17,2.1
	c-0.48,0.42-1.25,0.01-0.86-0.5c0.14-0.19,0.25-0.39,0.38-0.59c-0.66,0.65-1.33,1.28-2.12,1.78c-0.29,0.19-0.73-0.06-0.76-0.38
	c-0.1,0.1-0.19,0.21-0.29,0.31c-0.4,0.41-1.07-0.12-0.79-0.61c0.54-0.91,1.13-1.8,1.68-2.7c-0.44,0.35-0.88,0.69-1.38,0.96
	c-0.27,0.14-0.51,0.05-0.63-0.13c-1.58,1.27-3.28,2.35-5.23,2.99c-0.33,0.11-0.76-0.26-0.62-0.61c0.05-0.11,0.11-0.21,0.16-0.32
	c-0.58,0.55-1.18,1.08-1.85,1.52c-0.42,0.27-0.95-0.27-0.68-0.68c0.54-0.83,1.12-1.65,1.74-2.43c-0.83,0.53-1.68,1.04-2.59,1.45
	c-0.4,0.18-1.01-0.23-0.68-0.68c0.26-0.36,0.54-0.7,0.81-1.06c-0.29,0.07-0.61-0.17-0.64-0.45c-0.21,0.14-0.42,0.28-0.64,0.4
	c-0.31,0.17-0.57,0.02-0.68-0.22c-0.44,0.31-0.89,0.61-1.37,0.86c-0.47,0.25-0.88-0.24-0.68-0.68c0.2-0.46,0.45-0.88,0.72-1.3
	c-1.38,1.12-2.82,2.14-4.49,2.8c-0.34,0.13-0.76-0.28-0.62-0.61c0.14-0.33,0.28-0.65,0.44-0.96c-0.2,0.17-0.39,0.34-0.6,0.5
	c-0.39,0.3-0.98-0.3-0.68-0.68c0.06-0.07,0.12-0.14,0.17-0.21c-0.31,0.16-0.68-0.05-0.75-0.34c-5.82,5.27-12.2,9.83-19.35,13.16
	c-7.65,3.56-15.98,5.66-24.43,5.77c-8.19,0.11-16.47-1.58-23.75-5.4c-6.66-3.49-12.5-8.67-16.55-15.03
	c-4.03-6.34-6.13-13.74-5.87-21.27c0.26-7.45,2.8-14.86,7.63-20.59c4.71-5.58,11.63-10.27,18.83-11.45c3.12-0.51,6.98-0.66,10.1-0.1
	c-4.83-4.96-11.49-7.87-18.36-8.47c-7.42-0.64-14.75,1.54-20.88,5.7c-6.4,4.34-11.29,10.67-14.17,17.83
	c-3,7.47-3.88,15.72-3.01,23.7c0.83,7.68,3.34,15.16,7.1,21.9c3.76,6.74,8.77,12.76,14.66,17.74c5.98,5.05,12.89,8.92,20.25,11.55
	c7.44,2.66,15.33,4.05,23.23,4.23c8.07,0.18,16.14-0.91,23.88-3.19c7.99-2.35,15.61-5.89,22.62-10.38
	c6.91-4.42,13.43-9.74,18.92-15.85c1.95-2.17,6.66-7.88,8.95-12.34C147.38,102.62,145.81,104.83,143.72,106.57z"/>
<linearGradient id="SVGID_2_" gradientUnits="userSpaceOnUse" x1="35.894" y1="67.9409" x2="130.34" y2="67.9409">
	<stop  offset="0" style="stop-color:#028838"/>
	<stop  offset="0.1955" style="stop-color:#008D36"/>
	<stop  offset="1" style="stop-color:#95C11F"/>
</linearGradient>
<path class="st1" d="M130.15,48.55c-0.47-6.51-2.46-16.28-4.66-22.44c-0.44-1.22-0.99-2.81-1.7-4.37c0.58,2.04,1.19,4.07,1.71,6.13
	c0.15,0.63-0.8,0.89-0.96,0.27c-0.18-0.72-0.4-1.44-0.63-2.14c-0.22,0.26-0.75,0.28-0.9-0.15c-0.13-0.36-0.26-0.71-0.41-1.06
	c0,0.01,0.01,0.02,0.01,0.03c0.08,0.3-0.11,0.52-0.34,0.59c0.09,0.26,0.17,0.51,0.25,0.77c0.13,0.43-0.38,0.74-0.71,0.59
	c0.01,0.03,0.02,0.06,0.03,0.09c0.18,0.63-0.75,0.86-0.96,0.27c-0.02-0.06-0.04-0.12-0.06-0.18c0.03,0.11,0.06,0.23,0.09,0.34
	c0.15,0.61-0.65,0.82-0.92,0.34c0.02,0.09,0.05,0.17,0.07,0.26c0.15,0.63-0.8,0.89-0.96,0.27c-0.03-0.13-0.07-0.26-0.1-0.39
	c0.07,0.35,0.14,0.7,0.2,1.03c0.01,0.04,0.02,0.07,0.02,0.11c0,0,0,0,0,0c0.01,0.04,0.02,0.09,0.02,0.13
	c0.03,0.26-0.16,0.42-0.39,0.47c0.11,0.72,0.23,1.44,0.31,2.17c0.07,0.61-0.79,0.6-0.98,0.13c-0.37-0.94-0.61-1.94-0.95-2.89
	c-0.01,0.13-0.01,0.25-0.02,0.38c-0.03,0.34,0.29,0.11,0,0c0.24,1.02-0.13,2.5,0.07,3.53c0.12,0.64-0.72,0.85-0.96,0.27
	c-0.32-0.78-0.61-1.58-0.95-2.36c0.05,0.35,0.11,0.69,0.14,1.03c0.05,0.53-0.68,0.63-0.93,0.25c-0.5-0.75-0.76-1.68-1.17-2.5
	c0.11,1.2,0.53,2.4,0.73,3.56c0.06,0.36-0.21,0.6-0.49,0.62c0.06,0.25,0.11,0.5,0.15,0.74c0,0,0,0.01,0,0.01l0,0
	c0.01,0.04,0.02,0.09,0.02,0.13c0.04,0.43-0.35,0.54-0.66,0.42c0.06,0.4,0.11,0.79,0.15,1.19c0.05,0.5-0.71,0.67-0.93,0.25
	c-0.03-0.05-0.05-0.11-0.07-0.16c0.07,0.48,0.14,0.97,0.15,1.44c0.01,0.48-0.71,0.71-0.93,0.25c-0.16-0.33-0.3-0.67-0.44-1.01
	c0.03,0.31,0.07,0.62,0.09,0.93c0.01,0.18-0.07,0.3-0.18,0.38c0.02,0.07,0.04,0.12,0.05,0.19c1.77,6.61,2.72,13.38,2.3,20.23
	c-0.41,6.69-2.1,13.31-5.22,19.27c-3.02,5.77-7.35,10.91-12.77,14.55c-4.96,3.33-10.8,5.45-16.78,5.87
	c-5.96,0.42-11.93-0.92-17.09-3.96c-5.11-3.01-9.33-7.59-11.5-13.14c-2.11-5.41-2.53-12.21-0.63-17.69
	c0.85-2.44,1.82-4.89,3.45-6.89c-5.27,1.5-9.81,5.05-12.81,9.61c-3.26,4.95-4.51,10.89-3.92,16.76c0.61,6.12,3.18,11.94,7.1,16.66
	c4.09,4.93,9.52,8.67,15.42,11.09c5.69,2.33,11.86,3.41,18,3.33c6.14-0.08,12.24-1.29,17.95-3.53c5.79-2.27,11.12-5.63,15.75-9.78
	c4.68-4.2,8.64-9.18,11.76-14.63c3.18-5.57,5.48-11.63,6.82-17.9C130.22,61.81,130.63,55.15,130.15,48.55z"/>
<linearGradient id="SVGID_3_" gradientUnits="userSpaceOnUse" x1="71.1855" y1="111.9156" x2="71.1855" y2="25.9043" gradientTransform="matrix(0.9592 0.1055 -0.105 0.9524 20.1911 -23.1531)">
	<stop  offset="0" style="stop-color:#DF481A"/>
	<stop  offset="1" style="stop-color:#F9B233"/>
</linearGradient>
<path class="st2" d="M105.9,52.9c-0.19-4.46-1.13-8.9-2.72-13.08c-1.63-4.27-4.24-9.27-7.09-12.84c-2.95-3.69-7.58-8.3-11.45-11.03
	c-3.81-2.69-7.12-4.68-11.18-6.48c-1.99-0.88-4.94-2.21-7.24-2.59c1.31,0.85,2.56,1.78,3.59,2.98c0.05,0.06,0.08,0.13,0.1,0.2
	c0.51,0.3,1.01,0.6,1.5,0.92c0.33,0.22,0.33,0.83-0.12,0.91c-0.86,0.16-1.72,0.2-2.59,0.2c0.11,0.25,0.03,0.56-0.31,0.65
	c-0.39,0.11-0.79,0.17-1.2,0.23c0,0,0,0,0,0c0.59,0.23,0.37,1.11-0.27,0.96c-0.09-0.02-0.19-0.02-0.29-0.02
	c0.7,0.54,1.46,1,2.2,1.49c0.41,0.27,0.26,0.92-0.25,0.93c-0.26,0.01-0.52,0.02-0.77,0.04c0.47,0.4,0.98,0.76,1.47,1.15
	c0.35,0.28,0.05,0.86-0.35,0.85c-0.58-0.01-1.15-0.09-1.73-0.18c0.77,0.54,1.57,1.05,2.25,1.71c0.24,0.24,0.16,0.78-0.22,0.84
	c-1.57,0.22-3.09,0-4.62-0.27c1.14,0.66,2.36,1.2,3.55,1.74c0.47,0.21,0.21,0.94-0.25,0.93c-0.39,0-0.78-0.03-1.17-0.05
	c1.39,1.04,3.02,1.77,4.59,2.48c4.45,2.03,5.32,2.43,9.47,5.42c3.89,2.8,7.75,7.71,9.62,12.11c1.81,4.27,2.68,8.97,2.22,13.59
	c-0.42,4.23-1.91,8.39-4.4,11.85c-2.49,3.46-5.94,6.12-9.97,7.57c-3.99,1.44-8.44,1.68-12.5,0.35c-3.95-1.29-7.93-3.99-9.97-7.58
	c-0.54-0.96-0.75-1.75-0.91-3.19c-1.59,3.58-1.7,7.69-0.55,11.42c1.25,4.03,3.96,7.41,7.47,9.74c3.66,2.44,8.04,3.67,12.43,3.66
	c4.59-0.01,9.12-1.29,13.15-3.43c3.88-2.06,7.29-4.95,10.04-8.35c2.75-3.4,4.86-7.29,6.23-11.44
	C105.06,63.11,106.09,57.31,105.9,52.9z"/>
<circle class="st3" cx="71.47" cy="61.53" r="6.89"/>
<g>
	<path class="st4" d="M171.78,110.75h-8.72c-1.22,0-2.14-0.32-2.75-0.96s-0.93-1.49-0.93-2.54v-8.08c0-1.05,0.31-1.9,0.93-2.54
		c0.62-0.64,1.54-0.96,2.75-0.96h8.72v1.15h-5.06v5.76h4.43v1.15h-4.43v5.87h5.06V110.75z M165.44,109.58V96.84h-2.37
		c-1.6,0-2.39,0.78-2.39,2.35v8.04c0,1.57,0.8,2.35,2.39,2.35H165.44z"/>
	<path class="st4" d="M181.58,97.99v12.76h-1.26v-1.33c-0.12,0.32-0.4,0.63-0.85,0.94s-1.06,0.46-1.84,0.46
		c-0.95,0-1.69-0.29-2.22-0.88c-0.53-0.59-0.8-1.39-0.8-2.39v-9.55h1.29v9.51c0,1.45,0.69,2.17,2.08,2.17
		c0.63,0,1.18-0.19,1.64-0.56c0.46-0.38,0.69-0.89,0.69-1.54v-9.58H181.58z"/>
	<path class="st4" d="M187.02,104.59l1.06,5.31c0.23-1.25,0.59-3.02,1.08-5.31l1.4-6.59h1.33l-2.82,12.76h-1.96l-2.85-12.76h1.33
		L187.02,104.59z"/>
	<path class="st4" d="M198.85,99.26c-0.23-0.04-0.52-0.07-0.88-0.07c-0.57,0-1.07,0.21-1.48,0.62s-0.62,0.95-0.62,1.61v9.33h-1.29
		V97.99h1.26v1.58c0.11-0.42,0.38-0.8,0.81-1.14s1.02-0.51,1.76-0.51c0.2,0,0.34,0.01,0.43,0.02V99.26z"/>
	<path class="st4" d="M201,101.24c0-1.05,0.3-1.9,0.89-2.53c0.59-0.63,1.49-0.95,2.7-0.95c1.19,0,2.08,0.32,2.68,0.95
		c0.59,0.63,0.89,1.48,0.89,2.53v3.48h-5.87v2.78c0,1.54,0.77,2.3,2.3,2.3c1.52,0,2.28-0.77,2.28-2.3v-0.79h1.29v0.77
		c0,1.05-0.3,1.9-0.89,2.54c-0.59,0.64-1.49,0.96-2.68,0.96c-1.21,0-2.1-0.32-2.7-0.96c-0.59-0.64-0.89-1.49-0.89-2.54V101.24z
		 M206.87,103.59v-2.35c0-1.55-0.76-2.33-2.28-2.33c-1.54,0-2.3,0.78-2.3,2.33v2.35H206.87z"/>
	<path class="st4" d="M216.03,104.34c1.45,0.62,2.17,1.57,2.17,2.87v0.5c0,1.02-0.29,1.83-0.88,2.41c-0.59,0.58-1.48,0.87-2.69,0.87
		c-2.32,0-3.48-1.11-3.48-3.32v-0.52h1.29v0.54c0,0.72,0.16,1.26,0.49,1.61c0.32,0.35,0.89,0.53,1.71,0.53
		c0.83,0,1.42-0.17,1.76-0.52c0.35-0.35,0.52-0.88,0.52-1.6v-0.41c0-0.45-0.11-0.82-0.34-1.12c-0.23-0.29-0.62-0.55-1.17-0.78
		l-2.15-0.95c-1.33-0.56-1.99-1.55-1.99-2.98v-0.41c0-2.2,1.14-3.3,3.43-3.3c2.27,0,3.41,1.11,3.41,3.32v0.57h-1.31v-0.59
		c0-0.74-0.15-1.28-0.45-1.63c-0.3-0.35-0.85-0.52-1.65-0.52c-0.81,0-1.38,0.17-1.69,0.52c-0.32,0.35-0.47,0.88-0.47,1.6v0.29
		c0,0.54,0.11,0.97,0.33,1.29c0.22,0.32,0.58,0.58,1.1,0.79L216.03,104.34z"/>
	<path class="st4" d="M227.71,103.05c-1.48-0.98-2.21-2.14-2.21-3.48v-0.63c0-1.05,0.3-1.9,0.92-2.54c0.61-0.64,1.52-0.96,2.72-0.96
		c1.22,0,2.13,0.32,2.74,0.96c0.61,0.64,0.91,1.49,0.91,2.54v0.81h-1.31v-0.81c0-1.55-0.78-2.33-2.35-2.33s-2.35,0.78-2.35,2.33
		v0.41c0,0.63,0.14,1.15,0.42,1.55c0.28,0.4,0.7,0.78,1.25,1.14l2.28,1.49c1.43,0.95,2.15,2.03,2.15,3.25v0.77
		c-0.02,1.02-0.34,1.85-0.98,2.48s-1.56,0.95-2.77,0.95c-1.22,0-2.15-0.32-2.79-0.97s-0.96-1.49-0.96-2.53v-1.02h1.31v1.02
		c0,1.55,0.81,2.33,2.44,2.33c0.83,0,1.45-0.21,1.85-0.62c0.41-0.41,0.61-0.98,0.61-1.71v-0.29c-0.02-0.65-0.15-1.16-0.4-1.52
		c-0.25-0.37-0.66-0.74-1.23-1.12L227.71,103.05z"/>
	<path class="st4" d="M242.99,107.48c0,1.07-0.29,1.92-0.88,2.55c-0.59,0.63-1.47,0.95-2.66,0.95c-1.21,0-2.1-0.32-2.69-0.95
		s-0.88-1.48-0.88-2.55v-6.23c0-1.05,0.29-1.9,0.88-2.53c0.59-0.63,1.48-0.95,2.69-0.95c1.19,0,2.08,0.32,2.66,0.95
		c0.59,0.63,0.88,1.48,0.88,2.53V107.48z M241.71,101.24c0-1.54-0.75-2.3-2.26-2.3c-1.52,0-2.28,0.77-2.28,2.3v6.23
		c0,1.55,0.76,2.33,2.28,2.33c1.5,0,2.26-0.78,2.26-2.33V101.24z"/>
	<path class="st4" d="M252.32,107.48v-0.81h1.29v0.81c0,1.05-0.3,1.9-0.89,2.54c-0.59,0.64-1.49,0.96-2.7,0.96
		c-1.19,0-2.08-0.32-2.68-0.96c-0.59-0.64-0.89-1.49-0.89-2.54v-6.23c0-1.05,0.3-1.9,0.89-2.53c0.59-0.63,1.49-0.95,2.68-0.95
		c1.2,0,2.1,0.32,2.7,0.95c0.59,0.63,0.89,1.48,0.89,2.53v0.93h-1.29v-0.93c0-1.54-0.77-2.3-2.3-2.3c-1.52,0-2.28,0.77-2.28,2.3
		v6.23c0,1.55,0.76,2.33,2.28,2.33C251.55,109.8,252.32,109.03,252.32,107.48z"/>
	<path class="st4" d="M258.64,95.37c0,0.54-0.28,0.81-0.83,0.81c-0.56,0-0.84-0.27-0.84-0.81c0-0.56,0.28-0.84,0.84-0.84
		C258.36,94.54,258.64,94.81,258.64,95.37z M257.15,98.01h1.29v12.74h-1.29V98.01z"/>
	<path class="st4" d="M261.82,101.08c0-1.04,0.29-1.85,0.88-2.44s1.48-0.88,2.69-0.88s2.1,0.29,2.69,0.88s0.88,1.4,0.88,2.44v9.67
		h-1.26v-1.42c-0.38,1.02-1.29,1.54-2.76,1.54c-1.1,0-1.92-0.26-2.46-0.79c-0.54-0.53-0.81-1.28-0.81-2.26v-0.63
		c0-1.48,0.89-2.49,2.67-3.05l3.34-0.99v-2.06c0-0.72-0.18-1.26-0.53-1.63s-0.94-0.54-1.75-0.54s-1.4,0.18-1.75,0.54
		s-0.53,0.9-0.53,1.63v0.66h-1.29V101.08z M262.95,107.79c0,1.31,0.71,1.96,2.12,1.96c0.9,0,1.56-0.21,1.98-0.64
		c0.41-0.43,0.62-0.97,0.62-1.64v-3.14l-2.89,0.84c-0.68,0.21-1.15,0.47-1.42,0.79c-0.27,0.32-0.41,0.72-0.41,1.22V107.79z"/>
	<path class="st4" d="M272.73,94.58h1.29v16.17h-1.29V94.58z"/>
	<path class="st4" d="M277.69,101.24c0-1.05,0.3-1.9,0.89-2.53c0.59-0.63,1.49-0.95,2.7-0.95c1.19,0,2.08,0.32,2.68,0.95
		c0.59,0.63,0.89,1.48,0.89,2.53v3.48h-5.87v2.78c0,1.54,0.77,2.3,2.3,2.3c1.52,0,2.28-0.77,2.28-2.3v-0.79h1.29v0.77
		c0,1.05-0.3,1.9-0.89,2.54c-0.59,0.64-1.49,0.96-2.68,0.96c-1.21,0-2.1-0.32-2.7-0.96c-0.59-0.64-0.89-1.49-0.89-2.54V101.24z
		 M283.57,103.59v-2.35c0-1.55-0.76-2.33-2.28-2.33c-1.54,0-2.3,0.78-2.3,2.33v2.35H283.57z"/>
	<path class="st4" d="M292.73,104.34c1.45,0.62,2.17,1.57,2.17,2.87v0.5c0,1.02-0.29,1.83-0.88,2.41c-0.59,0.58-1.48,0.87-2.69,0.87
		c-2.32,0-3.48-1.11-3.48-3.32v-0.52h1.29v0.54c0,0.72,0.16,1.26,0.49,1.61c0.32,0.35,0.89,0.53,1.71,0.53
		c0.83,0,1.42-0.17,1.76-0.52c0.35-0.35,0.52-0.88,0.52-1.6v-0.41c0-0.45-0.11-0.82-0.34-1.12c-0.23-0.29-0.62-0.55-1.17-0.78
		l-2.15-0.95c-1.33-0.56-1.99-1.55-1.99-2.98v-0.41c0-2.2,1.14-3.3,3.43-3.3c2.27,0,3.41,1.11,3.41,3.32v0.57h-1.31v-0.59
		c0-0.74-0.15-1.28-0.45-1.63c-0.3-0.35-0.85-0.52-1.65-0.52c-0.81,0-1.38,0.17-1.69,0.52c-0.32,0.35-0.47,0.88-0.47,1.6v0.29
		c0,0.54,0.11,0.97,0.33,1.29c0.22,0.32,0.58,0.58,1.1,0.79L292.73,104.34z"/>
	<path class="st4" d="M202.76,131.75h-6.35v-15.09h6.35v1.15h-5.06v5.76h4.43v1.15h-4.43v5.87h5.06V131.75z"/>
	<path class="st4" d="M211.56,131.75h-5.76v-15.09h1.29v13.93h4.47V131.75z"/>
	<path class="st4" d="M219.22,127.42h-4.16l-0.99,4.34h-1.36l3.5-15.09h1.85l3.5,15.09h-1.35L219.22,127.42z M218.97,126.24
		l-0.72-3.14c-0.74-3.25-1.11-5.05-1.11-5.4c-0.21,1.29-0.58,3.09-1.11,5.4l-0.72,3.14H218.97z"/>
	<path class="st4" d="M230.44,131.75l-2.21-6.19c-0.09,0.01-0.24,0.02-0.45,0.02h-2.12v6.17h-1.29v-15.09h3.41
		c1.22,0,2.13,0.31,2.74,0.94c0.61,0.63,0.92,1.46,0.92,2.5v2.05c0,1.58-0.65,2.63-1.94,3.14l2.37,6.46H230.44z M227.77,124.39
		c1.58,0,2.37-0.75,2.37-2.24v-2.05c0-1.52-0.79-2.28-2.37-2.28h-2.12v6.57H227.77z"/>
	<path class="st4" d="M240.51,127.42h-4.16l-0.99,4.34H234l3.5-15.09h1.85l3.5,15.09h-1.35L240.51,127.42z M240.26,126.24
		l-0.72-3.14c-0.74-3.25-1.11-5.05-1.11-5.4c-0.21,1.29-0.58,3.09-1.11,5.4l-0.72,3.14H240.26z"/>
	<path class="st4" d="M246.94,116.67v15.09h-1.29v-15.09H246.94z M253.18,116.67l-3.43,7.34l3.59,7.75h-1.47l-3.5-7.7l3.36-7.38
		H253.18z"/>
	<path class="st4" d="M256.02,131.75v-15.09h1.29v15.09H256.02z"/>
</g>
<g>
	<path class="st4" d="M173.72,55.49c0.05-2.32,0.17-4.47,0.38-6.45c0.2-1.98,0.45-3.56,0.74-4.75c0.69-3.17,1.61-5.84,2.76-8.01
		s2.48-3.97,4-5.38c1.52-1.41,3.22-2.47,5.11-3.15c1.89-0.69,3.91-1.15,6.06-1.4c0.29-0.02,0.62-0.05,1-0.07
		c0.19,0,0.39,0.01,0.61,0.04c0.65,0.02,1.23,0.06,1.76,0.11l0.84,5.23l4.43-1.77l1.15,5.08l4.81-1.19
		c1.02,1.28,1.87,2.59,2.55,3.96c0.68,1.36,1.14,2.91,1.36,4.64c0.45,3.8,0.71,7.61,0.78,11.41c0,0.55,0.01,1.1,0.04,1.63
		c0,3.25-0.2,6.35-0.59,9.28c-0.44,3.42-1.21,6.53-2.3,9.32c-1.09,2.79-2.56,5.04-4.4,6.73c-1.91,1.75-4.13,2.97-6.66,3.68
		c-2.28,0.65-4.53,0.98-6.73,0.98c-0.21,0-0.43,0-0.64,0c-2.36-0.07-4.55-0.45-6.57-1.12c-2.01-0.68-3.49-1.51-4.42-2.5
		c-1.26-1.28-2.3-2.94-3.09-4.97c-0.8-2.03-1.43-4.23-1.9-6.6c-0.47-2.37-0.78-4.83-0.95-7.39c-0.12-1.91-0.17-3.76-0.14-5.55
		C173.7,56.67,173.7,56.07,173.72,55.49z M183.83,56.06c0,0.41,0,0.82,0,1.23c0,2.6,0.19,5.18,0.58,7.73
		c0.46,2.96,1.34,5.43,2.65,7.41c0.39,0.6,1.06,1.11,2.03,1.52s2.02,0.64,3.16,0.69c0.1,0,0.19,0,0.29,0c1.02,0,2.01-0.21,2.98-0.61
		c1.07-0.46,1.91-1.29,2.54-2.49c1.28-2.41,2.17-5.04,2.65-7.88c0.41-2.46,0.62-4.85,0.62-7.19c0-0.36-0.01-0.73-0.04-1.12
		c-0.07-2.7-0.35-5.19-0.82-7.48c-0.47-2.29-1-4.1-1.58-5.42c-0.75-1.69-1.72-2.82-2.91-3.4c-0.94-0.48-1.92-0.72-2.94-0.72
		c-0.24,0-0.49,0.01-0.73,0.04c-1.26,0.15-2.45,0.59-3.58,1.34s-1.93,1.59-2.42,2.53c-0.65,1.13-1.22,2.97-1.69,5.51
		S183.91,53.05,183.83,56.06z"/>
	<path class="st4" d="M216.17,49.62c-0.12-0.72-0.18-1.46-0.18-2.21c0-0.94,0.11-1.91,0.33-2.9c0.36-1.79,1.01-3.64,1.96-5.55
		c0.89-1.84,2.33-3.57,4.3-5.2c1.97-1.63,4.22-3.08,6.74-4.35c2.52-1.27,5.19-2.32,7.99-3.15c2.8-0.83,5.49-1.41,8.05-1.72
		L244.33,27l3.04,0.98l-4.68,3.77l6.23,1.56l-0.54,2.46c-1.74,0.29-3.66,0.71-5.75,1.25c-2.09,0.54-4.07,1.21-5.93,2.01
		c-1.86,0.8-3.47,1.75-4.84,2.86s-2.17,2.38-2.41,3.81c-0.05,0.31-0.07,0.63-0.07,0.94c0,1.18,0.4,2.22,1.2,3.12
		c0.99,1.11,2.24,2.06,3.75,2.84c1.51,0.79,3.08,1.48,4.71,2.08c1.63,0.6,2.94,1.15,3.93,1.63c1.14,0.6,2.2,1.31,3.19,2.12
		s1.79,1.79,2.41,2.95c0.62,1.16,1.01,2.51,1.18,4.06c0.05,0.43,0.07,0.88,0.07,1.34c0,1.21-0.16,2.56-0.47,4.06
		c-0.6,2.56-1.86,4.84-3.75,6.83c-1.9,1.99-4.24,3.63-7.01,4.91c-2.68,1.23-5.56,2.1-8.63,2.59c-3.07,0.5-6.03,0.79-8.88,0.89
		l-0.69-0.72l4.02-3.48l-4.39-1.2l1.49-1.27c-0.1-0.29-0.22-0.57-0.36-0.83c-0.1-0.24-0.22-0.5-0.38-0.76
		c-0.16-0.27-0.31-0.58-0.45-0.94c1.69-0.19,3.66-0.5,5.91-0.92s4.29-0.97,6.13-1.65c0.75-0.29,1.59-0.73,2.52-1.3
		c0.93-0.58,1.65-1.28,2.16-2.1c0.34-0.56,0.51-1.17,0.51-1.85c0-0.29-0.04-0.59-0.11-0.91c-0.22-1.04-1.06-2.19-2.54-3.44
		c-0.99-0.84-1.98-1.55-2.97-2.1c-0.99-0.56-1.98-1.09-2.97-1.6c-0.99-0.48-1.99-0.97-3.01-1.47c-1.01-0.5-2.07-1.04-3.15-1.65
		c-1.98-1.09-3.51-2.33-4.59-3.73S216.46,51.24,216.17,49.62z"/>
	<path class="st4" d="M252.77,30.19l1.7-1.2l-1.02-1.7l25.2-1.49l-1.12,1.56l1.96,1.27l-3.59,1.78l3.66,2.97l-0.69,1.49l-13.05,1.41
		l-0.36,14.03l13.96-0.51l0.36,1.34l-2.97,3.26l2.54,1.49l-0.4,1.56l-13.34,1.85l0.36,16.31l13.45-0.58l0.29,1.05l-4.53,1.85
		l5.04,1.78l-1.92,2.75l0.98,1.56l-16.72,1.41l0.56-2.54l-4.77,0.22l0.21-4.46l-3.34,0.62l0.14-41.79h-1.92l-0.47-1.49l5.1-3.41
		L252.77,30.19z"/>
</g>
</svg>
